<svg width="105" height="120" viewBox="0 0 105 120" fill="none" xmlns="http://www.w3.org/2000/svg">
<path d="M28.928 89.6C19.1147 89.6 11.8187 87.424 7.04 83.072C2.3467 78.635 0 71.893 0 62.848V0H9.216V62.848C9.216 69.419 10.7947 74.283 13.952 77.44C17.1947 80.597 22.1867 82.176 28.928 82.176H57.728V89.6H28.928Z" fill="white"/>
<path d="M85.324 89.9H43.612L34.504 119.6H25L48.892 42.38C50.828 36.132 52.896 31.82 55.096 29.444C57.384 26.98 60.508 25.748 64.468 25.748C68.428 25.748 71.552 26.98 73.84 29.444C76.128 31.82 78.24 36.132 80.176 42.38L104.068 119.6H94.432L85.324 89.9ZM83.08 82.508L70.804 42.512C69.836 39.52 68.912 37.452 68.032 36.308C67.152 35.164 65.964 34.592 64.468 34.592C63.06 34.592 61.916 35.164 61.036 36.308C60.156 37.452 59.232 39.52 58.264 42.512L45.988 82.508H83.08Z" fill="white"/>
<path d="M85.04 81.6H46.04V82.6H85.04V81.6Z" fill="white"/>
</svg>
